<svg xmlns="http://www.w3.org/2000/svg" viewBox="0 0 330.13 70.1"><defs><style>.cls-1,.cls-2,.cls-4{fill:#fff;}.cls-2{font-size:32px;font-family:PTSans-Bold, PT Sans;font-weight:700;letter-spacing:0.01em;}.cls-3{letter-spacing:0.04em;}.cls-4{font-size:16px;font-family:PTSans-Regular, PT Sans;letter-spacing:-0.02em;}.cls-5{letter-spacing:-0.04em;}.cls-6{letter-spacing:-0.02em;}.cls-7{letter-spacing:-0.02em;}.cls-8{letter-spacing:-0.04em;}.cls-9{letter-spacing:-0.02em;}.cls-10{letter-spacing:-0.06em;}</style></defs><title>logo</title><g id="Слой_2" data-name="Слой 2"><g id="Слой_1-2" data-name="Слой 1"><path class="cls-1" d="M23.71,11c-1.26.29-4.07-.13-6.79-.54a.61.61,0,0,0-.69.52.6.6,0,0,0,.51.69,43.44,43.44,0,0,0,5.86.66A6.16,6.16,0,0,0,24,12.19a.62.62,0,0,0,.46-.74A.61.61,0,0,0,23.71,11Z"/><path class="cls-1" d="M11.1,9.67c-3.32-.32-5.65-.2-7.31.38a.61.61,0,0,0-.38.78.6.6,0,0,0,.58.41l.2,0A17.07,17.07,0,0,1,11,10.9a.62.62,0,0,0,.12-1.23Z"/><path class="cls-1" d="M60.53,22.69l1.35-3.39c2.11-5,2.54-8.63,1.33-11.09a6.59,6.59,0,0,0-4.62-3.32C54,3.68,51,7.84,47.91,12.24c-.83,1.17-1.68,2.38-2.58,3.49a19.39,19.39,0,0,1-2.58,2.67,26.64,26.64,0,0,1,3.08-6.84A13.7,13.7,0,0,0,47.35.4.61.61,0,1,0,46.2.83a12.63,12.63,0,0,1-1.43,10.1c-3,5-3.41,8-3.47,8.62a19.62,19.62,0,0,1-3.84,2.14c.6-1.88,1.82-6.39.81-9.87,4.12-6,2.65-9.11,2.58-9.24a.61.61,0,1,0-1.1.54s1.06,2.44-2,7.31a5.66,5.66,0,0,0-1.24-1.57C32.9,5.73,28.91,7,25.7,8c-.71.23-1.39.43-2,.57-1.26.3-4.05-.13-7-.57C12.15,7.27,7,6.49,3.79,7.59a5.21,5.21,0,0,0-3.71,4,6.18,6.18,0,0,0,2.17,5.63,6.72,6.72,0,0,0,.38,1.62A9.25,9.25,0,0,0,5.74,23C3,25,3.55,32.06,4.37,38.14c0,.29.07.53.1.72a7.42,7.42,0,0,0,1.11,3.29,4,4,0,0,0-.87,3,3.53,3.53,0,0,0,1.65,2.51,9.4,9.4,0,0,0,3.71.82c.85.09,1.72.18,2.58.35a2.73,2.73,0,0,1,2,1.21,1,1,0,0,1,0,.93c-.33.71-1.28.57-1.49.48s-.47-.24-.73-.38c-1.71-.91-4.58-2.44-7.15.32s-2.12,7.18-.83,10.39c1,2.47,2.64,5.16,6.53,5.16a10.28,10.28,0,0,0,1.83-.18A8.53,8.53,0,0,0,15,66a4.75,4.75,0,0,0,2.15,2.48,6,6,0,0,0,2.85.66A8.49,8.49,0,0,0,21.76,69a3.56,3.56,0,0,0,1.13.67,8.05,8.05,0,0,0,2.91.45,24.12,24.12,0,0,0,10.65-2.92,5.9,5.9,0,0,0,3-4.58c5-4.56,7.47-9.19,7.89-14.54.07-.9.11-1.82.13-2.74l.26.18c-.28,1.26-1,5.06.68,7.22a4,4,0,0,0,3.38,1.51,4.19,4.19,0,0,0,3.15-1.41c3.17-3.4,3-12.13,2.86-14.31,3.78-1,4.5-5.93,5-9.23.06-.44.12-.85.18-1.21a5.35,5.35,0,0,0-.64-4.16A3.28,3.28,0,0,0,60.53,22.69ZM3.61,15.08a3,3,0,0,1,1.7-1.82c1.66-.73,4.34-.65,8,.25,9.24,2.29,12.37,1.53,16,.64.41-.1.52,0,.56.06.72.82-.24,4.94-1.53,8.28a.61.61,0,1,0,1.14.44A38.84,38.84,0,0,0,30.67,19c1-3.91.52-5.08,0-5.62A1.66,1.66,0,0,0,29,13c-3.6.88-6.44,1.58-15.4-.64-3.88-1-6.82-1-8.74-.18a4.1,4.1,0,0,0-2.34,2.51,4,4,0,0,0-.21.85,4.83,4.83,0,0,1-1-3.68,3.93,3.93,0,0,1,2.9-3.07c2.9-1,8.14-.21,12.34.42,3.2.49,6,.91,7.45.56.66-.15,1.35-.36,2.08-.59,3.07-1,6.55-2,9.61.65,3.73,3.26.38,12.23.35,12.32a.08.08,0,0,0,0,.05,11.32,11.32,0,0,1-1.81,3.4A6.12,6.12,0,0,1,27.87,28a5.78,5.78,0,0,1-4.11-2.4c-1.24-2-.45-4.73-.11-5.89,0-.11.06-.21.08-.3a.85.85,0,0,0-.17-.83c-.48-.55-1.42-.46-3.7-.19s-5.15.63-7.38,0a.62.62,0,0,0-.33,1.19c2.47.68,5.59.3,7.86,0a22.42,22.42,0,0,1,2.45-.21,10.65,10.65,0,0,0-.47,5,15.56,15.56,0,0,1-12.43-.55C1.86,20.3,3.6,15.13,3.61,15.08ZM4.94,29.66c.06-3.36.72-5.4,1.9-5.92.23.15.47.29.71.43-1.39,2.45-1.3,7.23-1.11,10a.61.61,0,0,0,.61.58h0a.61.61,0,0,0,.57-.65c-.31-4.34.06-7.77,1-9.33l.41.2A19.8,19.8,0,0,0,12,26a5.07,5.07,0,0,0-1.56,3.85,24.34,24.34,0,0,0,.45,4.26c.5,3.11,1.07,6.63-.73,7.73a2.75,2.75,0,0,1-2.65.43c-.92-.44-1.58-1.74-1.8-3.57,0-.19-.06-.44-.1-.74A56,56,0,0,1,4.94,29.66Zm7.67,35.87h0c-4.09.76-5.76-1.15-7-4.23-1.15-2.86-1.6-6.74.59-9.09,1.93-2.08,4-1,5.67-.08.28.15.55.3.79.41a2.42,2.42,0,0,0,3.12-1.06,2.23,2.23,0,0,0,0-2,3.89,3.89,0,0,0-2.83-1.87c-.91-.18-1.81-.27-2.68-.36A9,9,0,0,1,7,46.59,2.25,2.25,0,0,1,5.93,45a2.68,2.68,0,0,1,.5-1.89,3.55,3.55,0,0,0,.53.32,3,3,0,0,0,1.35.3,4.77,4.77,0,0,0,2.47-.79,3.69,3.69,0,0,0,1.63-2.43,6.27,6.27,0,0,1,6.94,4.4C21.47,51.43,20.12,55.49,15,58a6.76,6.76,0,0,1-4.18.62,10.71,10.71,0,0,1-.38-2.16.61.61,0,0,0-.65-.57.62.62,0,0,0-.58.65c0,.48.35,4.68,2.64,5.29a.39.39,0,0,0,.15,0,.62.62,0,0,0,.6-.45.61.61,0,0,0-.44-.75,1.49,1.49,0,0,1-.82-.76l.67,0a7.05,7.05,0,0,0,3.53-.81,10,10,0,0,0,5.64-6.22c.64-2.31.43-5.07-.65-8.42A7.18,7.18,0,0,0,17,40.13a22.2,22.2,0,0,0-.54-9.73.62.62,0,0,0-.78-.39.6.6,0,0,0-.39.77,21.3,21.3,0,0,1,.55,8.86,9,9,0,0,0-3.29-.42,25.15,25.15,0,0,0-.5-5.29,23.29,23.29,0,0,1-.43-4c.1-2.89,1.82-3.44,2.09-3.51a17.09,17.09,0,0,0,2.84.24,16.27,16.27,0,0,0,3-.27,5.4,5.4,0,0,1,3.36,5.37c-.05.55-1.34,13.35.57,17.55a6.07,6.07,0,0,0,4.7,3.6,6.33,6.33,0,0,0,1,.07A6.56,6.56,0,0,0,34,50.79c3.4-3.87,2.8-12.33,2.78-12.69a.62.62,0,0,0-1.23.09c0,.09.58,8.31-2.47,11.79a5.33,5.33,0,0,1-4.76,1.69,4.8,4.8,0,0,1-3.76-2.89c-1.77-3.9-.48-16.78-.46-16.92a7,7,0,0,0-2.8-5.94c.41-.13.75-.26,1-.37a4.52,4.52,0,0,0,.36.69,6.94,6.94,0,0,0,4.92,3,8.89,8.89,0,0,0,1.59.15,7.06,7.06,0,0,0,3-.66A7.27,7.27,0,0,0,33.4,32c-.24.35-1,1.23-3.54,1.79a.6.6,0,0,0-.47.5c-.06.34-1.23,7.85,0,11.27a3.66,3.66,0,0,1-1.16-.15.61.61,0,1,0-.33,1.18,5.32,5.32,0,0,0,1.35.2A2.77,2.77,0,0,0,31,46.28a2.82,2.82,0,0,0,1.08-2,.61.61,0,1,0-1.22-.07,1.82,1.82,0,0,1-.29.77c-.83-2.45-.33-7.71,0-10.11a6.82,6.82,0,0,0,3.68-1.95,5.8,5.8,0,0,0,4,1.36,7.53,7.53,0,0,0,1.66-.21,69.84,69.84,0,0,0-.16,11.79c.29,6.34-2.76,9.19-3.77,10a7,7,0,0,0-2.6-.54,11.46,11.46,0,0,0-3.83.6A28.93,28.93,0,0,0,17.19,63,9,9,0,0,1,12.61,65.53Zm25.64-3.44a4.72,4.72,0,0,1-2.42,4c-3.32,2-9.73,3.46-12.49,2.39a1.82,1.82,0,0,1-1.21-1.14,2.57,2.57,0,0,1,.14-2.29c.64-1,2.27-1.54,5-1.79a29.9,29.9,0,0,0,6.55-1.38.61.61,0,1,0-.4-1.16,29.89,29.89,0,0,1-6.26,1.32c-2,.18-4.72.62-5.87,2.33a3.78,3.78,0,0,0-.3,3.33,1.21,1.21,0,0,0,.05.14,5.37,5.37,0,0,1-3.26-.44,3.64,3.64,0,0,1-1.65-2,9.52,9.52,0,0,0,2-1.58,28.17,28.17,0,0,1,11.76-6.81l.06,0a10.34,10.34,0,0,1,3.39-.53,4.72,4.72,0,0,1,4.65,3.12A6.91,6.91,0,0,1,38.25,62.09Zm9.2-18.38a74.17,74.17,0,0,0-.65-8.85.61.61,0,0,0-1.21.17A68.09,68.09,0,0,1,46.1,48c-.38,4.79-2.45,8.82-6.67,12.94a8.13,8.13,0,0,0-.34-1.7h0a6,6,0,0,0-2-2.72c1.39-1.23,4.13-4.44,3.85-10.66-.37-8.15.09-11.32.24-12.11a30.13,30.13,0,0,0,6.58-3.33l1-.67a4.42,4.42,0,0,1,1.88,2,27.43,27.43,0,0,1,2.06,9.93A3.63,3.63,0,0,1,52,44.12l-.08.07a2.39,2.39,0,0,1-1.83.87A4.28,4.28,0,0,1,47.45,43.71ZM54,52a3,3,0,0,1-2.26,1,2.81,2.81,0,0,1-2.4-1c-1.21-1.59-.79-4.58-.52-5.9a3.86,3.86,0,0,0,1.19.22h.07a3.63,3.63,0,0,0,2.65-1.22c.26-.22,1.1-1.11,1.16-3.45a19.77,19.77,0,0,0-.25-3.45,5.2,5.2,0,0,0,2.39.58l.5,0C56.66,41,56.77,49,54,52Zm7.7-24.12c-.06.38-.12.8-.19,1.24-.44,3-1.1,7.58-4.2,8.26a4.37,4.37,0,0,1-4-.81,29.51,29.51,0,0,0-1.62-5.37,5.8,5.8,0,0,0-1.91-2.27,21.34,21.34,0,0,0,5.76-5.82c.73-1.28.84-2.35.34-3.19a4.84,4.84,0,0,0-1.39-1.55,18.91,18.91,0,0,0,2.88-7.27.62.62,0,0,0-.52-.7.63.63,0,0,0-.7.52,17.45,17.45,0,0,1-2.84,7l-.15,0c-1.9-.16-3.75,1.67-5.32,3.48-2.53,2.93-7.24,5.41-9,6.28A7.09,7.09,0,0,1,39,26.55a.62.62,0,0,0-.53-.69.61.61,0,0,0-.69.53c-.06.42-.29,2.57.55,3.53a1.39,1.39,0,0,0,1.07.49.61.61,0,0,0,.61-.62.61.61,0,0,0-.61-.61.15.15,0,0,1-.14-.07.69.69,0,0,1-.13-.21c1.47-.7,6.83-3.39,9.74-6.75,1.28-1.48,2.93-3.17,4.29-3,.64,0,1.22.52,1.76,1.43.33.54,0,1.36-.35,2-2.4,4.24-12.18,10.56-16.35,10.56a4.49,4.49,0,0,1-3.35-1.24A6,6,0,0,1,33.43,28a9,9,0,0,0,1.72-1.66,12.5,12.5,0,0,0,1.79-3.14,20.4,20.4,0,0,0,9.35-6.69c.92-1.14,1.79-2.37,2.62-3.55,3-4.22,5.57-7.87,9.36-6.87a5.39,5.39,0,0,1,3.84,2.67c1,2.1.57,5.49-1.37,10.08l-1.47,3.69a4.53,4.53,0,0,0-4.14,3.88c-.31,2.09-.76,4.83-.76,4.86a.61.61,0,0,0,.5.71.63.63,0,0,0,.71-.51s.45-2.78.77-4.88a3.2,3.2,0,0,1,3.41-2.81,2.18,2.18,0,0,1,1.55.86A4.27,4.27,0,0,1,61.73,27.86Z"/><path class="cls-1" d="M33.94,64.6a24.08,24.08,0,0,1-7.2,1.77.62.62,0,0,0,.05,1.23h0a25.35,25.35,0,0,0,7.58-1.87.61.61,0,0,0-.47-1.13Z"/><path class="cls-1" d="M50.35,41.53a.62.62,0,0,0,.62-.59c0-.22.13-5.43-1.7-8.16a.61.61,0,0,0-.85-.18.62.62,0,0,0-.17.86c1.61,2.4,1.49,7.39,1.49,7.44a.61.61,0,0,0,.6.63Z"/><path class="cls-1" d="M58.33,18.35a.61.61,0,0,0,.82-.3,17.37,17.37,0,0,0,1.64-7.36.62.62,0,0,0-.64-.59.61.61,0,0,0-.58.64A16.5,16.5,0,0,1,58,17.54.62.62,0,0,0,58.33,18.35Z"/><rect x="83.27" y="42" width="10" height="1"/><polygon class="cls-1" points="93.27 42 83.27 42 83.27 43 93.27 43 93.27 42 93.27 42"/><text class="cls-2" transform="translate(81.27 36)">P<tspan class="cls-3" x="18.66" y="0">roGastroMed.ru</tspan></text><text class="cls-4" transform="translate(81.77 57)">в<tspan class="cls-5" x="7.74" y="0">с</tspan><tspan x="14.35" y="0">е о пищеварении и б</tspan><tspan class="cls-6" x="157.18" y="0">о</tspan><tspan class="cls-7" x="165.42" y="0">лезня</tspan><tspan class="cls-8" x="203.69" y="0">х</tspan><tspan class="cls-7" x="211.26" y="0" xml:space="preserve"> Ж</tspan><tspan class="cls-9" x="227.95" y="0">К</tspan><tspan class="cls-10" x="237.31" y="0">Т</tspan></text></g></g></svg>